<?xml version="1.0" encoding="UTF-8"?>
<svg version="1.1" xmlns="http://www.w3.org/2000/svg" width="461" height="461">
<path d="M0 0 C0.78149414 0.22381348 1.56298828 0.44762695 2.36816406 0.67822266 C33.0459471 9.65888542 61.93202527 25.83878528 85 48 C85.49564453 48.4645459 85.99128906 48.9290918 86.50195312 49.40771484 C109.43764437 70.9569533 126.8705977 100.88334157 128.11572266 132.98339844 C128.24114123 139.65811396 128.172515 146.32676578 128 153 C127.01 153 126.02 153 125 153 C123.57729806 150.85670877 122.34726965 148.75468027 121.125 146.5 C95.36758268 101.54150107 46.51284598 74.86064155 -1.97265625 61.5625 C-11.9056514 58.94153831 -21.88038586 56.7656273 -32 55 C-32.91652344 54.83483887 -33.83304687 54.66967773 -34.77734375 54.49951172 C-95.74103794 44.04704855 -169.80145816 52.34266096 -221.88476562 87.50244141 C-239.06520223 99.66596843 -252.65099425 115.38537733 -256.59765625 136.61328125 C-258.27347191 150.71941888 -253.00168184 164.73591364 -244.4375 175.8125 C-243.29881005 177.21416684 -242.15280977 178.6099229 -241 180 C-240.36835938 180.825 -239.73671875 181.65 -239.0859375 182.5 C-210.71276545 216.50529983 -155.61553311 227.76408797 -114.05102539 232.32348633 C-104.76983485 233.15857783 -95.48482829 233.18613521 -86.17358398 233.18530273 C-83.46647096 233.18747673 -80.75977513 233.20566526 -78.05273438 233.22460938 C-30.81616656 233.37833023 22.39175779 223.1193286 60.40625 193.484375 C63 192 63 192 65.6484375 191.9921875 C70.26832857 193.97214082 71.94251191 198.64261861 74 203 C78.64620075 215.08358925 77.90357146 226.10376154 73 238 C63.80694142 256.00505773 46.73456227 266.90600761 28.90234375 275.12255859 C27.16568254 275.9235802 25.4414634 276.75143729 23.71875 277.58203125 C-37.67500893 305.82018008 -119.31391717 303.281783 -182 281 C-206.74656579 271.67757292 -229.70459131 259.2352214 -249 241 C-250.39143109 239.80734478 -251.78708794 238.61959687 -253.1875 237.4375 C-275.80199483 217.57098163 -291.69716276 186.00614232 -294 156 C-294.74534872 141.50558865 -294.87889389 127.07568314 -291 113 C-290.70996094 111.94474121 -290.70996094 111.94474121 -290.4140625 110.86816406 C-283.75280332 87.33788278 -270.83222529 68.41015577 -254 51 C-253.39800781 50.34644531 -252.79601562 49.69289062 -252.17578125 49.01953125 C-242.42483542 38.67910759 -229.99875326 30.49729247 -218 23 C-217.39526855 22.62133789 -216.79053711 22.24267578 -216.16748047 21.85253906 C-184.37967739 2.26860268 -146.00430058 -8.03254828 -109 -11 C-107.69417969 -11.11085937 -106.38835937 -11.22171875 -105.04296875 -11.3359375 C-69.36929283 -13.96789365 -34.31632119 -9.90554544 0 0 Z " fill="#0D090A" transform="translate(314,50)"/>
<path d="M0 0 C1.39143109 1.19265522 2.78708794 2.38040313 4.1875 3.5625 C26.80199483 23.42901837 42.69716276 54.99385768 45 85 C45.74534872 99.49441135 45.87889389 113.92431686 42 128 C41.80664062 128.70350586 41.61328125 129.40701172 41.4140625 130.13183594 C34.75280332 153.66211722 21.83222529 172.58984423 5 190 C4.39800781 190.65355469 3.79601562 191.30710937 3.17578125 191.98046875 C-6.57516458 202.32089241 -19.00124674 210.50270753 -31 218 C-31.60473145 218.37866211 -32.20946289 218.75732422 -32.83251953 219.14746094 C-64.62032261 238.73139732 -102.99569942 249.03254828 -140 252 C-141.30582031 252.11085938 -142.61164063 252.22171875 -143.95703125 252.3359375 C-179.63070717 254.96789365 -214.68367881 250.90554544 -249 241 C-249.78149414 240.77618652 -250.56298828 240.55237305 -251.36816406 240.32177734 C-282.0459471 231.34111458 -310.93202527 215.16121472 -334 193 C-334.7434668 192.30318115 -334.7434668 192.30318115 -335.50195312 191.59228516 C-358.43764437 170.0430467 -375.8705977 140.11665843 -377.11572266 108.01660156 C-377.24114123 101.34188604 -377.172515 94.67323422 -377 88 C-376.01 88 -375.02 88 -374 88 C-372.57729806 90.14329123 -371.34726965 92.24531973 -370.125 94.5 C-344.36758268 139.45849893 -295.51284598 166.13935845 -247.02734375 179.4375 C-237.0943486 182.05846169 -227.11961414 184.2343727 -217 186 C-216.08347656 186.16516113 -215.16695312 186.33032227 -214.22265625 186.50048828 C-153.27785583 196.94971204 -78.69183169 188.86245934 -27 153 C-23.89655858 150.77429958 -20.92527197 148.45345391 -18 146 C-17.34 145.484375 -16.68 144.96875 -16 144.4375 C-2.71282079 133.64166689 5.98659533 117.9477849 8 101 C8.30120141 85.67888822 1.55341596 72.51966712 -8 61 C-8.94746094 59.7625 -8.94746094 59.7625 -9.9140625 58.5 C-38.28723455 24.49470017 -93.38446689 13.23591203 -134.94897461 8.67651367 C-144.23016515 7.84142217 -153.51517171 7.81386479 -162.82641602 7.81469727 C-165.53352904 7.81252327 -168.24022487 7.79433474 -170.94726562 7.77539062 C-216.85982368 7.62597846 -273.90649303 16.98490275 -309.9140625 47.76953125 C-312 49 -312 49 -314.578125 48.97265625 C-319.27539016 47.08617395 -320.93249101 42.37860381 -323 38 C-327.64620075 25.91641075 -326.90357146 14.89623846 -322 3 C-309.30320043 -21.86730693 -281.19480126 -34.5764772 -256 -43 C-174.38567585 -69.07551992 -64.64205327 -61.0902921 0 0 Z " fill="#0D090A" transform="translate(397,171)"/>
<path d="M0 0 C0 0.33 0 0.66 0 1 C-8.2532389 2.03165486 -16.42900955 2.15374304 -24.73144531 2.13037109 C-26.99551081 2.12501063 -29.259378 2.13034526 -31.5234375 2.13671875 C-39.07427084 2.13982353 -46.49608835 1.93798896 -54 1 C-54 0.67 -54 0.34 -54 0 C-35.92031997 -1.16469693 -18.07950353 -0.78467287 0 0 Z " fill="#565556" transform="translate(258,116)"/>
<path d="M0 0 C-1.27309253 3.81927758 -2.58991312 4.2228928 -6 6.25 C-10.60840939 9.07489511 -14.83517483 12.1290675 -19.0625 15.48828125 C-24.84496124 20 -24.84496124 20 -29 20 C-23.35365949 14.38667902 -17.16714853 9.91007837 -10.5625 5.5 C-9.75699707 4.95956055 -8.95149414 4.41912109 -8.12158203 3.86230469 C-2.25857868 0 -2.25857868 0 0 0 Z " fill="#7E7D7D" transform="translate(98,73)"/>
<path d="M0 0 C-0.66 0 -1.32 0 -2 0 C-2 0.66 -2 1.32 -2 2 C-2.58265625 2.04898437 -3.1653125 2.09796875 -3.765625 2.1484375 C-8.49860492 2.58006146 -13.08760682 3.19753469 -17.75 4.125 C-24.59057566 5.33635194 -31.13106335 4.75192502 -38 4 C-38 3.67 -38 3.34 -38 3 C-36.71867188 2.87882812 -35.43734375 2.75765625 -34.1171875 2.6328125 C-32.36971544 2.46433046 -30.62232498 2.29500068 -28.875 2.125 C-27.96878906 2.03694092 -27.06257813 1.94888184 -26.12890625 1.8581543 C-19.62478339 1.20785701 -13.19829926 0.34683125 -6.75 -0.73046875 C-4.14438123 -0.985849 -2.45637852 -0.8325706 0 0 Z " fill="#595858" transform="translate(290,280)"/>
<path d="M0 0 C-3.13283409 2.08855606 -4.90867153 2.48353117 -8.5625 3.0625 C-12.40946432 3.63329904 -12.40946432 3.63329904 -16 5 C-17.6626783 5.35268934 -19.33065717 5.68033861 -21 6 C-24.00262622 6.65493525 -27.00135297 7.32710099 -30 8 C-30 7.67 -30 7.34 -30 7 C-31.65 6.67 -33.3 6.34 -35 6 C-35 5.67 -35 5.34 -35 5 C-34.01773437 4.83395264 -34.01773437 4.83395264 -33.015625 4.66455078 C-30.00986343 4.15456899 -27.00493668 3.63981904 -24 3.125 C-22.97003906 2.95097656 -21.94007813 2.77695312 -20.87890625 2.59765625 C-16.36265773 1.82097657 -11.91947247 1.02434711 -7.5 -0.1953125 C-4.16254246 -0.96262975 -3.0980082 -0.95708751 0 0 Z " fill="#6C6A6B" transform="translate(309,353)"/>
<path d="M0 0 C0.66 0.33 1.32 0.66 2 1 C-3.70966344 8.44903111 -10.44818129 14.52133767 -20 16 C-18.04154364 13.95895813 -16.07008353 12.24038526 -13.75 10.625 C-13.1415625 10.19703125 -12.533125 9.7690625 -11.90625 9.328125 C-10.63541667 8.44270833 -9.36458333 7.55729167 -8.09375 6.671875 C-7.4853125 6.24390625 -6.876875 5.8159375 -6.25 5.375 C-5.69828125 4.99085938 -5.1465625 4.60671875 -4.578125 4.2109375 C-2.90344158 2.92590815 -1.4601295 1.52170123 0 0 Z " fill="#969595" transform="translate(381,315)"/>
<path d="M0 0 C1.11084961 0.07831055 1.11084961 0.07831055 2.24414062 0.15820312 C4.05902709 0.28700152 5.87333325 0.42393262 7.6875 0.5625 C7.6875 0.8925 7.6875 1.2225 7.6875 1.5625 C4.50059767 1.90171452 1.31289896 2.23279417 -1.875 2.5625 C-2.77025391 2.65789062 -3.66550781 2.75328125 -4.58789062 2.8515625 C-9.52740788 3.35817965 -14.34738014 3.67147382 -19.3125 3.5625 C-19.3125 3.2325 -19.3125 2.9025 -19.3125 2.5625 C-17.3325 2.5625 -15.3525 2.5625 -13.3125 2.5625 C-13.3125 1.9025 -13.3125 1.2425 -13.3125 0.5625 C-8.82082172 -0.63350901 -4.57980207 -0.3560704 0 0 Z " fill="#767575" transform="translate(202.3125,177.4375)"/>
<path d="M0 0 C1.35899829 3.68747307 0.60931659 5.78780197 -0.8125 9.375 C-1.18503906 10.33792969 -1.55757812 11.30085937 -1.94140625 12.29296875 C-2.29074219 13.18628906 -2.64007813 14.07960937 -3 15 C-3.67681023 16.99659018 -4.34961499 18.99464622 -5 21 C-5.66 21 -6.32 21 -7 21 C-6.45806986 15.669877 -5.15341447 11.42105958 -2.9375 6.5625 C-2.65583984 5.92634766 -2.37417969 5.29019531 -2.08398438 4.63476562 C-1.39710188 3.08636949 -0.69965593 1.54266643 0 0 Z " fill="#898889" transform="translate(32,139)"/>
<path d="M0 0 C0.33 0 0.66 0 1 0 C1.73458407 3.67292035 2.24906859 6.25330594 1.04931641 9.85009766 C-0.04840661 13.14530992 -0.31125677 15.81231135 -0.4140625 19.2734375 C-0.45273437 20.42714844 -0.49140625 21.58085937 -0.53125 22.76953125 C-0.5621875 23.95933594 -0.593125 25.14914063 -0.625 26.375 C-0.66367187 27.58800781 -0.70234375 28.80101562 -0.7421875 30.05078125 C-0.83613786 33.03370521 -0.92180807 36.01662825 -1 39 C-1.33 39 -1.66 39 -2 39 C-2.05895136 34.75006008 -2.0939116 30.50022784 -2.125 26.25 C-2.14175781 25.06277344 -2.15851562 23.87554687 -2.17578125 22.65234375 C-2.21818871 14.89177827 -1.55083348 7.60555314 0 0 Z " fill="#ACABAB" transform="translate(22,167)"/>
<path d="M0 0 C0.33 0.99 0.66 1.98 1 3 C-2.059771 3.84357963 -5.1232046 4.6730202 -8.1875 5.5 C-9.48397461 5.85771484 -9.48397461 5.85771484 -10.80664062 6.22265625 C-11.64775391 6.44824219 -12.48886719 6.67382812 -13.35546875 6.90625 C-14.12528076 7.11572266 -14.89509277 7.32519531 -15.68823242 7.54101562 C-18.17823523 8.03538729 -20.46781499 8.07833519 -23 8 C-19.91190305 6.23537317 -18.76687864 6 -15 6 C-15 5.34 -15 4.68 -15 4 C-11.26562152 3.12132271 -7.83225427 2.91087781 -4 3 C-4 2.34 -4 1.68 -4 1 C-2 0 -2 0 0 0 Z " fill="#848383" transform="translate(317,332)"/>
<path d="M0 0 C-8.14419235 3.32889992 -16.22905333 6.34819081 -25 4 C-21.58700991 3.1306619 -18.16916192 2.28220776 -14.75 1.4375 C-13.78191406 1.19064453 -12.81382812 0.94378906 -11.81640625 0.68945312 C-10.88183594 0.46064453 -9.94726562 0.23183594 -8.984375 -0.00390625 C-7.69611816 -0.32597046 -7.69611816 -0.32597046 -6.38183594 -0.65454102 C-3.90763516 -1.0133965 -2.35189657 -0.78317203 0 0 Z " fill="#838282" transform="translate(180,44)"/>
<path d="M0 0 C13.6332574 -0.18451025 13.6332574 -0.18451025 20 1 C19.67 1.66 19.34 2.32 19 3 C12.34949576 3.24991456 6.43013467 2.73955334 0 1 C0 0.67 0 0.34 0 0 Z " fill="#403E3F" transform="translate(247,99)"/>
<path d="M0 0 C9.00261467 0.63436715 18.0024385 1.29753257 27 2 C27 2.33 27 2.66 27 3 C24.43788925 3.19569589 21.87567609 3.38180612 19.3125 3.5625 C18.59126953 3.61857422 17.87003906 3.67464844 17.12695312 3.73242188 C13.22685936 3.99955159 9.78888972 4.00887596 6 3 C6 2.34 6 1.68 6 1 C4.02 1 2.04 1 0 1 C0 0.67 0 0.34 0 0 Z " fill="#878686" transform="translate(183,281)"/>
<path d="M0 0 C0.33 0 0.66 0 1 0 C0.91621094 1.02738281 0.83242188 2.05476562 0.74609375 3.11328125 C0.13469118 11.2053166 -0.11250014 18.92153743 1 27 C0.67 25.68 0.34 24.36 0 23 C-0.66 23 -1.32 23 -2 23 C-3.52550178 18.03959354 -2.48471946 13.65963638 -1.5625 8.6875 C-1.41490234 7.85154297 -1.26730469 7.01558594 -1.11523438 6.15429688 C-0.75158098 4.10141479 -0.3768822 2.05049468 0 0 Z " fill="#848282" transform="translate(57,179)"/>
<path d="M0 0 C-1.484375 1.984375 -1.484375 1.984375 -4 4 C-6.89449949 4.2906124 -9.37949935 4.38186045 -12.25 4.25 C-13.36761719 4.22292969 -13.36761719 4.22292969 -14.5078125 4.1953125 C-16.33909701 4.14835649 -18.16971649 4.07661652 -20 4 C-13.93775593 0.67554357 -6.86061613 -0.36108506 0 0 Z " fill="#828081" transform="translate(179,120)"/>
<path d="M0 0 C0.79921875 0.0515625 1.5984375 0.103125 2.421875 0.15625 C3.246875 0.22070312 4.071875 0.28515625 4.921875 0.3515625 C6.18257812 0.43664062 6.18257812 0.43664062 7.46875 0.5234375 C9.53716542 0.66446582 11.6046396 0.81918038 13.671875 0.9765625 C13.671875 1.3065625 13.671875 1.6365625 13.671875 1.9765625 C11.31816386 2.1734624 8.9644055 2.35927224 6.609375 2.5390625 C4.64291016 2.69568359 4.64291016 2.69568359 2.63671875 2.85546875 C-1.25138397 2.97421869 -4.51922723 2.64522466 -8.328125 1.9765625 C-5.35863922 0.25707765 -3.41360275 -0.24382877 0 0 Z " fill="#5C5A5B" transform="translate(203.328125,360.0234375)"/>
<path d="M0 0 C-1.489539 4.06963335 -3.7475392 5.32270828 -7.5 7.3125 C-8.4796875 7.84488281 -9.459375 8.37726563 -10.46875 8.92578125 C-11.72171875 9.45751953 -11.72171875 9.45751953 -13 10 C-13.66 9.67 -14.32 9.34 -15 9 C-12.87885041 7.49428254 -10.75346385 5.99531321 -8.625 4.5 C-8.02171875 4.07074219 -7.4184375 3.64148438 -6.796875 3.19921875 C-2.2265625 0 -2.2265625 0 0 0 Z " fill="#9D9C9C" transform="translate(379,242)"/>
<path d="M0 0 C0 4.03416942 -1.6539134 6.82941012 -4 10 C-6.75 11.9375 -6.75 11.9375 -9 13 C-7.47987323 7.59510481 -3.72614782 4.01507372 0 0 Z " fill="#949494" transform="translate(51,111)"/>
<path d="M0 0 C0.66 0.33 1.32 0.66 2 1 C-1.88309282 4.64775386 -4.71201818 5.58525633 -10 6 C-10 6.66 -10 7.32 -10 8 C-11.32 7.67 -12.64 7.34 -14 7 C-11.71296692 5.80274117 -9.42115138 4.61702982 -7.125 3.4375 C-6.14853516 2.92413086 -6.14853516 2.92413086 -5.15234375 2.40039062 C-3.46470143 1.53917109 -1.73420407 0.76313297 0 0 Z " fill="#9A9999" transform="translate(123,135)"/>
<path d="M0 0 C-3.36527536 2.96144232 -6.62098103 4.12419621 -11 5 C-11.99 4.34 -12.98 3.68 -14 3 C-12.23358317 2.3012307 -10.46167336 1.61633417 -8.6875 0.9375 C-7.20830078 0.36322266 -7.20830078 0.36322266 -5.69921875 -0.22265625 C-3 -1 -3 -1 0 0 Z " fill="#807F80" transform="translate(144,129)"/>
<path d="M0 0 C6.18160604 0.53753096 11.326858 2.54582388 17 5 C13.8035914 6.06546953 11.34252724 6.07427838 8 6 C7.690625 5.0409375 7.690625 5.0409375 7.375 4.0625 C6.10461791 1.65074923 6.10461791 1.65074923 2.875 1.25 C1.92625 1.1675 0.9775 1.085 0 1 C0 0.67 0 0.34 0 0 Z " fill="#979697" transform="translate(317,52)"/>
<path d="M0 0 C0 0.66 0 1.32 0 2 C2.97 2.495 2.97 2.495 6 3 C2.12813552 4.44715727 -0.8232328 3.5441918 -4.75 2.5625 C-5.92046875 2.27503906 -7.0909375 1.98757812 -8.296875 1.69140625 C-9.18890625 1.46324219 -10.0809375 1.23507813 -11 1 C-11 0.67 -11 0.34 -11 0 C-7.01803543 -1.05404945 -4.01804691 -0.84098656 0 0 Z " fill="#828181" transform="translate(302,183)"/>
<path d="M0 0 C1.17046875 0.11085938 2.3409375 0.22171875 3.546875 0.3359375 C4.43890625 0.43132812 5.3309375 0.52671875 6.25 0.625 C6.25 0.955 6.25 1.285 6.25 1.625 C3.68795456 1.96219047 1.12545682 2.29487153 -1.4375 2.625 C-2.15873047 2.72039062 -2.87996094 2.81578125 -3.62304688 2.9140625 C-7.35992871 3.39183735 -10.97291531 3.74419794 -14.75 3.625 C-13.41666667 2.95833333 -12.08333333 2.29166667 -10.75 1.625 C-10.1828125 1.2640625 -9.615625 0.903125 -9.03125 0.53125 C-5.86390091 -0.72701197 -3.37054277 -0.33705428 0 0 Z " fill="#949393" transform="translate(190.75,101.375)"/>
<path d="M0 0 C0 0.33 0 0.66 0 1 C-1.04800781 1.09087891 -1.04800781 1.09087891 -2.1171875 1.18359375 C-3.02726562 1.26738281 -3.93734375 1.35117187 -4.875 1.4375 C-5.77992188 1.51871094 -6.68484375 1.59992187 -7.6171875 1.68359375 C-10.01110861 1.86989285 -10.01110861 1.86989285 -12 3 C-14.04498425 2.91219597 -16.08744948 2.75758462 -18.125 2.5625 C-19.22070312 2.46066406 -20.31640625 2.35882813 -21.4453125 2.25390625 C-22.70988281 2.12822266 -22.70988281 2.12822266 -24 2 C-24 1.67 -24 1.34 -24 1 C-15.97667603 0.09958689 -8.07029553 -0.11547323 0 0 Z " fill="#908E8E" transform="translate(218,39)"/>
<path d="M0 0 C0.33 0 0.66 0 1 0 C0.88544319 1.91731918 0.75793742 3.8338675 0.625 5.75 C0.55539062 6.81734375 0.48578125 7.8846875 0.4140625 8.984375 C0.0271777 11.80206432 -0.55686166 13.5830366 -2 16 C-3.43680971 9.86090397 -2.32637691 5.79622721 0 0 Z " fill="#747273" transform="translate(440,283)"/>
<path d="M0 0 C6.01326751 0.57914667 12.00892722 1.22337945 18 2 C18 2.33 18 2.66 18 3 C16.04235617 3.19456705 14.08384679 3.38044247 12.125 3.5625 C11.03445312 3.66691406 9.94390625 3.77132813 8.8203125 3.87890625 C6 4 6 4 4 3 C4 2.34 4 1.68 4 1 C2.68 0.67 1.36 0.34 0 0 Z " fill="#8C8B8B" transform="translate(170,356)"/>
<path d="M0 0 C3.39417765 3.12621626 5.6062718 5.56541027 7 10 C5.125 9.8125 5.125 9.8125 3 9 C1.51738586 6.11280405 0.70227415 3.16023369 0 0 Z " fill="#848484" transform="translate(416,193)"/>
<path d="M0 0 C3.39417765 3.12621626 5.6062718 5.56541027 7 10 C5.125 9.8125 5.125 9.8125 3 9 C1.51738586 6.11280405 0.70227415 3.16023369 0 0 Z " fill="#868585" transform="translate(416,118)"/>
<path d="M0 0 C0.90492188 0.02320313 1.80984375 0.04640625 2.7421875 0.0703125 C4.10730469 0.09738281 4.10730469 0.09738281 5.5 0.125 C6.19867188 0.14820313 6.89734375 0.17140625 7.6171875 0.1953125 C2.79072073 3.41295701 -2.58103074 4.55792386 -8.3828125 4.1953125 C-7.7640625 3.9065625 -7.1453125 3.6178125 -6.5078125 3.3203125 C-0.27936422 0.02289871 -0.27936422 0.02289871 0 0 Z " fill="#8F8E8E" transform="translate(299.3828125,412.8046875)"/>
<path d="M0 0 C0 4.45351799 -1.55160412 7.32740617 -4 11 C-4.66 11 -5.32 11 -6 11 C-4.74194623 6.49197399 -3.09592835 3.5087188 0 0 Z " fill="#868585" transform="translate(81,165)"/>
<path d="M0 0 C3.63 0.33 7.26 0.66 11 1 C11 1.33 11 1.66 11 2 C9.41913952 2.36504603 7.83516093 2.71660506 6.25 3.0625 C5.36828125 3.25972656 4.4865625 3.45695312 3.578125 3.66015625 C1.01320972 3.99825872 -0.57091639 3.81158635 -3 3 C-2.01 2.34 -1.02 1.68 0 1 C0 0.67 0 0.34 0 0 Z " fill="#727171" transform="translate(164,104)"/>
<path d="M0 0 C3.93673644 1.31224548 6.22719294 2.91910327 9 6 C6.75 6.25 6.75 6.25 4 6 C1.6875 4.125 1.6875 4.125 0 2 C0 1.34 0 0.68 0 0 Z " fill="#807F80" transform="translate(89,246)"/>
<path d="M0 0 C3.02346601 -0.2519555 4.6402007 -0.20421041 7.3125 1.3125 C9 3 9 3 9 6 C5.06326356 4.68775452 2.77280706 3.08089673 0 0 Z " fill="#807F7F" transform="translate(364,210)"/>
<path d="M0 0 C-1.10789408 3.32368224 -1.48436217 3.61563093 -4.375 5.25 C-5.28378906 5.78367187 -5.28378906 5.78367187 -6.2109375 6.328125 C-8 7 -8 7 -11 6 C-9.54550599 4.9944239 -8.08627557 3.99569565 -6.625 3 C-5.40683594 2.1646875 -5.40683594 2.1646875 -4.1640625 1.3125 C-2 0 -2 0 0 0 Z " fill="#8C8B8B" transform="translate(98,73)"/>
<path d="M0 0 C4.95 0.99 4.95 0.99 10 2 C5.82091936 4.08954032 5.19589427 4.16552619 1 3 C0.67 2.01 0.34 1.02 0 0 Z " fill="#696868" transform="translate(138,348)"/>
<path d="M0 0 C-0.99 0.495 -0.99 0.495 -2 1 C-2 1.66 -2 2.32 -2 3 C-7.28 2.67 -12.56 2.34 -18 2 C-18 1.67 -18 1.34 -18 1 C-15.93769732 0.8309093 -13.8751477 0.66482867 -11.8125 0.5 C-10.08966797 0.36078125 -10.08966797 0.36078125 -8.33203125 0.21875 C-5.53927574 0.0354038 -2.79680188 -0.04213637 0 0 Z " fill="#949393" transform="translate(270,282)"/>
<path d="M0 0 C-5.94 -0.33 -11.88 -0.66 -18 -1 C-18 -1.33 -18 -1.66 -18 -2 C-15.56305726 -2.24878997 -13.12761611 -2.47463404 -10.6875 -2.6875 C-9.65206055 -2.79674805 -9.65206055 -2.79674805 -8.59570312 -2.90820312 C-3.33984375 -3.33984375 -3.33984375 -3.33984375 0 0 Z " fill="#939191" transform="translate(270,180)"/>
<path d="M0 0 C3.34243648 1.89404734 3.97997149 2.94091591 5.25 6.6875 C5.4975 7.780625 5.745 8.87375 6 10 C3.03595495 7.19195732 0.55500981 4.81684226 -1 1 C-0.67 0.67 -0.34 0.34 0 0 Z " fill="#858484" transform="translate(422,174)"/>
<path d="M0 0 C-1 3 -1 3 -2.77734375 4.203125 C-3.49019531 4.54859375 -4.20304687 4.8940625 -4.9375 5.25 C-6.00291016 5.78367188 -6.00291016 5.78367188 -7.08984375 6.328125 C-8.03537109 6.66070312 -8.03537109 6.66070312 -9 7 C-9.66 6.67 -10.32 6.34 -11 6 C-9.54550599 4.9944239 -8.08627557 3.99569565 -6.625 3 C-5.40683594 2.1646875 -5.40683594 2.1646875 -4.1640625 1.3125 C-2 0 -2 0 0 0 Z " fill="#8C8B8B" transform="translate(109,143)"/>
<path d="M0 0 C-1.11328125 1.51953125 -1.11328125 1.51953125 -3 3 C-5.91796875 3.07421875 -5.91796875 3.07421875 -9.1875 2.6875 C-10.27417969 2.56761719 -11.36085938 2.44773437 -12.48046875 2.32421875 C-13.31191406 2.21722656 -14.14335937 2.11023438 -15 2 C-15 1.67 -15 1.34 -15 1 C-9.9752761 0.37470103 -5.07471573 -0.13012092 0 0 Z " fill="#989697" transform="translate(271,359)"/>
<path d="M0 0 C1.12377697 3.30435084 0.89554742 5.0506862 -0.4375 8.25 C-0.72496094 8.95640625 -1.01242187 9.6628125 -1.30859375 10.390625 C-1.53675781 10.92171875 -1.76492188 11.4528125 -2 12 C-3.06546953 8.8035914 -3.07427838 6.34252724 -3 3 C-2.34 3 -1.68 3 -1 3 C-0.67 2.01 -0.34 1.02 0 0 Z " fill="#848383" transform="translate(389,276)"/>
<path d="M0 0 C3.12613393 2.96160056 5.04783565 5.09567131 7 9 C4.36 7.02 1.72 5.04 -1 3 C-0.67 2.01 -0.34 1.02 0 0 Z " fill="#929292" transform="translate(34,278)"/>
<path d="M0 0 C0.99 0.33 1.98 0.66 3 1 C1.37660195 2.70884005 -0.29319053 4.37446717 -2 6 C-2.66 6 -3.32 6 -4 6 C-3.6875 4.125 -3.6875 4.125 -3 2 C-2.01 1.34 -1.02 0.68 0 0 Z " fill="#767575" transform="translate(93,210)"/>
<path d="M0 0 C5.15171623 -0.09038099 9.91913204 0.15318867 15 1 C15 1.33 15 1.66 15 2 C11.37 2.33 7.74 2.66 4 3 C4 2.34 4 1.68 4 1 C2.68 0.67 1.36 0.34 0 0 Z " fill="#818080" transform="translate(268,118)"/>
<path d="M0 0 C0 0.66 0 1.32 0 2 C1.65 1.67 3.3 1.34 5 1 C5.33 1.99 5.66 2.98 6 4 C0.06 3.01 0.06 3.01 -6 2 C-2 0 -2 0 0 0 Z " fill="#7E7D7D" transform="translate(164,413)"/>
<path d="M0 0 C1.051875 0.2475 2.10375 0.495 3.1875 0.75 C-0.63767513 3.14073445 -4.40915524 3.30966552 -8.8125 3.75 C-5.66311307 0.60061307 -4.55934222 -0.29897326 0 0 Z " fill="#878686" transform="translate(157.8125,107.25)"/>
<path d="M0 0 C1.11375 0.598125 2.2275 1.19625 3.375 1.8125 C4.00148438 2.14894531 4.62796875 2.48539062 5.2734375 2.83203125 C7 4 7 4 9 7 C5.625 6.3125 5.625 6.3125 2 5 C0.5625 2.375 0.5625 2.375 0 0 Z " fill="#919090" transform="translate(380,83)"/>
<path d="M0 0 C-2.81340521 2.81340521 -5.09555696 2.669115 -9 3 C-11.9375 2.5625 -11.9375 2.5625 -14 2 C-14 1.67 -14 1.34 -14 1 C-9.23692563 0.04738513 -4.8333472 -0.08333357 0 0 Z " fill="#716F70" transform="translate(295,356)"/>
<path d="M0 0 C8.57142857 0.85714286 8.57142857 0.85714286 12 3 C10.35 3 8.7 3 7 3 C6.67 3.66 6.34 4.32 6 5 C5.67 4.01 5.34 3.02 5 2 C3.35 1.67 1.7 1.34 0 1 C0 0.67 0 0.34 0 0 Z " fill="#929191" transform="translate(148,351)"/>
<path d="M0 0 C-2 2 -2 2 -3.9453125 2.1953125 C-5.96354167 2.13020833 -7.98177083 2.06510417 -10 2 C-6.64608848 -1.35391152 -4.35183427 -1.05855428 0 0 Z " fill="#7A7979" transform="translate(330,347)"/>
<path d="M0 0 C2.125 0.9375 2.125 0.9375 4 2 C4 2.66 4 3.32 4 4 C0.7 3.34 -2.6 2.68 -6 2 C-4.68 1.67 -3.36 1.34 -2 1 C-1.34 0.67 -0.68 0.34 0 0 Z " fill="#787777" transform="translate(154,410)"/>
<path d="M0 0 C3.3125 0.1875 3.3125 0.1875 7 1 C8.9375 3.5625 8.9375 3.5625 10 6 C6.40992874 4.66654496 3.20429093 3.1056769 0 1 C0 0.67 0 0.34 0 0 Z " fill="#A5A5A5" transform="translate(91,310)"/>
<path d="M0 0 C5.4611399 0.35233161 5.4611399 0.35233161 8 1 C9.5 3.0625 9.5 3.0625 10 5 C6.08788267 3.84414715 3.1254959 2.64465038 0 0 Z " fill="#AEADAD" transform="translate(345,200)"/>
<path d="M0 0 C0.99 0 1.98 0 3 0 C1.50163895 3.11198065 -0.19933758 6.0534615 -2 9 C-2.33 8.34 -2.66 7.68 -3 7 C-2.06421005 4.64018187 -1.06652192 2.30368736 0 0 Z " fill="#A09F9F" transform="translate(66,158)"/>
<path d="M0 0 C1.32 1.65 2.64 3.3 4 5 C3.67 5.66 3.34 6.32 3 7 C1.0625 6.25 1.0625 6.25 -1 5 C-1.75 2.875 -1.75 2.875 -2 1 C-1.34 0.67 -0.68 0.34 0 0 Z " fill="#737273" transform="translate(423,128)"/>
<path d="M0 0 C3.3 0.33 6.6 0.66 10 1 C6 3 6 3 2 3 C2 2.34 2 1.68 2 1 C1.34 0.67 0.68 0.34 0 0 Z " fill="#7A7879" transform="translate(281,43)"/>
<path d="M0 0 C-0.33 0.99 -0.66 1.98 -1 3 C-3.5625 4.1875 -3.5625 4.1875 -6 5 C-6.66 4.34 -7.32 3.68 -8 3 C-2.25 0 -2.25 0 0 0 Z " fill="#737272" transform="translate(354,335)"/>
<path d="M0 0 C-2.55068845 2.35448165 -3.71017358 2.98327924 -7.25 3.1875 C-8.1575 3.125625 -9.065 3.06375 -10 3 C-6.68152292 -0.06320961 -4.44849969 -0.3033068 0 0 Z " fill="#646363" transform="translate(278,281)"/>
<path d="M0 0 C4.02992782 0.55312735 8.02022924 1.1558062 12 2 C12 2.33 12 2.66 12 3 C9.69 3.33 7.38 3.66 5 4 C5 3.34 5 2.68 5 2 C3.35 1.67 1.7 1.34 0 1 C0 0.67 0 0.34 0 0 Z " fill="#989797" transform="translate(154,275)"/>
<path d="M0 0 C1.32 0.33 2.64 0.66 4 1 C4.33 3.31 4.66 5.62 5 8 C2.27573689 5.64722731 1.1858237 3.37503669 0 0 Z " fill="#999898" transform="translate(395,238)"/>
<path d="M0 0 C2.72426311 2.35277269 3.8141763 4.62496331 5 8 C3.68 7.67 2.36 7.34 1 7 C0.67 4.69 0.34 2.38 0 0 Z " fill="#999899" transform="translate(62,216)"/>
<path d="M0 0 C1.32 1.65 2.64 3.3 4 5 C3.67 5.66 3.34 6.32 3 7 C1.0625 6.25 1.0625 6.25 -1 5 C-1.75 2.875 -1.75 2.875 -2 1 C-1.34 0.67 -0.68 0.34 0 0 Z " fill="#6F6E6F" transform="translate(423,203)"/>
<path d="M0 0 C0 0.66 0 1.32 0 2 C0.66 2.33 1.32 2.66 2 3 C-1.63 2.67 -5.26 2.34 -9 2 C-9 1.67 -9 1.34 -9 1 C-5.846632 0.29925156 -3.27275026 0 0 0 Z " fill="#838383" transform="translate(288,180)"/>
<path d="M0 0 C1.88391785 3.26545761 2.49287967 6.28111761 3 10 C0.9375 8.375 0.9375 8.375 -1 6 C-0.75 2.75 -0.75 2.75 0 0 Z " fill="#858484" transform="translate(436,156)"/>
<path d="M0 0 C0 2.83967231 -0.40267181 5.23735711 -1 8 C-1.66 8 -2.32 8 -3 8 C-2.74438677 5.6568787 -2.40729228 3.32156597 -2 1 C-1.34 0.67 -0.68 0.34 0 0 Z " fill="#605F5F" transform="translate(28,152)"/>
<path d="M0 0 C0.6875 1.75 0.6875 1.75 1 4 C-0.3125 6.25 -0.3125 6.25 -2 8 C-2.66 8 -3.32 8 -4 8 C-2.87548273 5.0280615 -1.77706209 2.66559313 0 0 Z " fill="#8E8D8D" transform="translate(41,124)"/>
</svg>
